<svg xmlns="http://www.w3.org/2000/svg" fill="#213442" height="40" viewBox="0 -960 960 960" width="40"><path d="M282.975-140.001q-25.705 0-44.134-18.43-18.429-18.429-18.429-44.134v-532.05h-15.283q-10.698 0-17.913-7.25-7.215-7.249-7.215-17.999t7.215-17.878q7.215-7.128 17.913-7.128h148.922q0-12.795 8.946-21.654 8.945-8.859 21.567-8.859h190.872q12.622 0 21.567 8.946 8.946 8.945 8.946 21.567h148.922q10.698 0 17.913 7.249 7.215 7.25 7.215 18t-7.215 17.878q-7.215 7.128-17.913 7.128h-15.283v532.05q0 25.705-18.429 44.134-18.429 18.43-44.134 18.43h-394.05Zm406.358-594.614H270.667v532.05q0 5.385 3.59 8.847 3.59 3.462 8.718 3.462h394.05q5.128 0 8.718-3.462t3.59-8.847v-532.05ZM379.54-273.231h50.255v-379.077H379.54v379.077Zm150.665 0h50.255v-379.077h-50.255v379.077ZM270.667-734.615V-190.256-734.615Z"/></svg>